<svg width="52"
     height="48"
     viewBox="0 0 52 48"
     fill="none"
     xmlns="http://www.w3.org/2000/svg">
  <g filter="url(#filter0_d_107_78)">
    <path d="M18.5 15.75V6.75H21.5C21.7652 6.75 22.0196 6.90804 22.2071 7.18934C22.3946 7.47064 22.5 7.85218 22.5 8.25V14.25C22.5 14.6478 22.3946 15.0294 22.2071 15.3107C22.0196 15.592 21.7652 15.75 21.5 15.75H18.5ZM16.5 36.75C16.5 37.1478 16.3946 37.5294 16.2071 37.8107C16.0196 38.092 15.7652 38.25 15.5 38.25H11.5C11.2348 38.25 10.9804 38.092 10.7929 37.8107C10.6054 37.5294 10.5 37.1478 10.5 36.75V15.75H4V12.861C4.00012 12.599 4.04598 12.3417 4.133 12.1146C4.22002 11.8875 4.34517 11.6985 4.496 11.5665L10 6.75H16.5V36.75Z"
          fill="black" />
    <path d="M37.8568 38.244H32.2408C32.0968 37.476 31.8088 36.492 31.0648 34.5C30.2968 32.412 30.0088 31.86 29.4088 31.332C28.9048 30.876 28.3048 30.684 27.5368 30.684H25.0888V34.62C25.0888 36.252 25.1368 37.14 25.2808 38.244H20.1208C20.2648 37.14 20.3128 36.42 20.3128 34.644V21.732C20.3128 20.244 20.2648 19.356 20.1208 18.204C21.1768 18.252 22.0648 18.276 23.6968 18.276H29.9368C33.8248 18.276 36.0808 20.292 36.0808 23.748C36.0808 25.452 35.6008 26.796 34.6648 27.684C34.0648 28.236 33.5608 28.5 32.3848 28.884C33.6088 29.268 34.1608 29.82 34.9288 31.524C35.2888 32.292 35.6248 33.108 36.7048 35.7C36.9688 36.372 37.2568 36.972 37.8568 38.244ZM25.0888 26.58H28.8328C30.2488 26.58 31.1128 25.716 31.1128 24.348C31.1128 23.004 30.3448 22.308 28.8568 22.308H25.0888V26.58Z"
          fill="black" />
  </g>
  <defs>
    <filter id="filter0_d_107_78"
            x="0"
            y="0.5"
            width="52"
            height="52"
            filterUnits="userSpaceOnUse"
            color-interpolation-filters="sRGB">
      <feFlood flood-opacity="0"
               result="BackgroundImageFix" />
      <feColorMatrix in="SourceAlpha"
                     type="matrix"
                     values="0 0 0 0 0 0 0 0 0 0 0 0 0 0 0 0 0 0 127 0"
                     result="hardAlpha" />
      <feOffset dy="4" />
      <feGaussianBlur stdDeviation="2" />
      <feComposite in2="hardAlpha"
                   operator="out" />
      <feColorMatrix type="matrix"
                     values="0 0 0 0 0 0 0 0 0 0 0 0 0 0 0 0 0 0 0.25 0" />
      <feBlend mode="normal"
               in2="BackgroundImageFix"
               result="effect1_dropShadow_107_78" />
      <feBlend mode="normal"
               in="SourceGraphic"
               in2="effect1_dropShadow_107_78"
               result="shape" />
    </filter>
  </defs>
</svg>