<svg width="630"
     height="547"
     viewBox="0 0 630 547"
     fill="none"
     xmlns="http://www.w3.org/2000/svg">
  <g filter="url(#filter0_d_107_199)">
    <path fill-rule="evenodd"
          clip-rule="evenodd"
          d="M303.53 0.5C469.556 0.5 626 101.238 626 251.889C626 411.845 479.81 538.5 303.53 538.5C133.535 538.5 4 406.142 4 251.889C4 107.306 144.193 0.5 303.53 0.5Z"
          fill="#19425F" />
  </g>
  <path opacity="0.1"
        d="M584.433 294.764C584.442 302.305 583.357 309.819 581.201 317.139C580.476 319.605 579.633 322.02 578.673 324.384C577.498 327.302 576.137 330.165 574.595 332.959C573.818 334.373 572.997 335.759 572.131 337.116C572.146 344.849 570.251 352.501 566.568 359.587C559.91 372.301 548.038 382.582 533.115 388.554C523.785 392.296 513.588 394.263 503.25 394.317H148.22C132.424 394.345 116.901 390.858 103.229 384.209L103.019 384.109C101.071 383.151 99.1725 382.137 97.3226 381.067C93.1605 378.65 89.2501 375.941 85.6337 372.968C80.7389 368.948 76.4257 364.457 72.7836 359.587C64.2296 348.172 59.6982 334.954 59.7141 321.465C51.0514 308.691 46 293.389 46 276.946C46 256.2 54.0273 237.275 67.2157 222.949C69.9652 219.956 72.977 217.14 76.2258 214.524C79.4314 211.935 82.8769 209.565 86.5297 207.435C89.4521 205.73 92.5065 204.19 95.6724 202.825C96.9935 202.261 98.3192 201.727 99.6678 201.231C100.852 200.789 102.049 200.378 103.261 199.99C104.715 199.526 106.187 199.1 107.677 198.711C109.167 198.321 110.637 197.981 112.088 197.689C114.221 197.251 116.391 196.895 118.598 196.621C120.426 196.394 122.255 196.237 124.083 196.117C125.537 196.025 127.004 195.975 128.481 195.96H129.281C130.908 195.96 132.527 196.014 134.131 196.106C134.3 195.822 134.483 195.534 134.652 195.253C135.292 194.227 135.955 193.205 136.623 192.207C136.621 192.198 136.621 192.189 136.623 192.18C136.737 192.003 136.851 191.83 136.97 191.661C137.509 190.843 138.072 190.032 138.648 189.229C138.913 188.845 139.173 188.484 139.443 188.123C139.5 188.033 139.563 187.946 139.631 187.861C139.905 187.477 140.184 187.093 140.467 186.709C141.878 184.814 143.346 182.952 144.869 181.123L145.258 180.654C145.496 180.37 145.715 180.093 145.98 179.809C146.611 179.067 147.26 178.322 147.914 177.592C148.371 177.07 148.828 176.551 149.322 176.055C150.51 174.775 151.729 173.494 152.979 172.214C154.228 170.933 155.527 169.669 156.874 168.422C157.057 168.249 157.239 168.08 157.431 167.911L159.383 166.121C159.479 166.036 159.562 165.959 159.653 165.882C159.886 165.671 160.11 165.46 160.362 165.256C161.409 164.323 162.483 163.408 163.562 162.498C169.052 157.902 174.901 153.619 181.07 149.678C181.312 149.516 181.559 149.363 181.801 149.209C182.962 148.475 184.142 147.749 185.321 147.034C191.809 143.123 198.59 139.569 205.623 136.393C206.107 136.158 206.601 135.939 207.099 135.724C213.404 132.921 219.889 130.412 226.523 128.209C230.139 127.007 233.837 125.877 237.558 124.844C240.036 124.16 242.523 123.511 245.042 122.9C248.979 121.947 252.944 121.093 256.936 120.338C268.698 118.12 280.663 116.75 292.702 116.242C296.36 116.086 300.058 116.005 303.797 116C321.84 115.98 339.813 117.891 357.282 121.686C357.463 121.915 357.71 122.102 358 122.229C358.29 122.356 358.614 122.419 358.941 122.412H360.477C361.145 122.566 361.808 122.719 362.475 122.881C366.202 123.782 369.876 124.767 373.497 125.835L374.411 126.112C383.347 128.782 392.041 131.992 400.427 135.716C407.985 139.065 415.263 142.844 422.209 147.027C423.279 147.672 424.333 148.323 425.372 148.978C426.634 148.3 427.917 147.649 429.222 147.027C434.259 144.616 439.609 142.699 445.166 141.314C456.786 138.424 469.08 138.02 480.933 140.138C496.133 142.847 509.892 149.57 521.005 159.132C525.53 163.045 529.558 167.343 533.023 171.956C533.275 172.287 533.526 172.621 533.769 172.959C536.747 177.042 539.307 181.331 541.421 185.779C541.499 185.944 541.576 186.098 541.645 186.259C543.597 190.424 545.171 194.707 546.353 199.072C546.408 199.295 546.472 199.514 546.527 199.736C547.634 203.96 548.385 208.244 548.776 212.557C548.776 212.71 548.776 212.868 548.813 213.029C549.005 215.26 549.102 217.514 549.105 219.791C549.105 221.827 549.023 223.848 548.872 225.853C548.872 226.072 548.836 226.299 548.813 226.525C548.772 227.106 548.712 227.678 548.653 228.262C552.144 230.629 555.412 233.22 558.426 236.011C559.758 237.233 561.047 238.5 562.294 239.814C566.09 243.813 569.427 248.106 572.259 252.635C579.99 264.898 584.433 279.324 584.433 294.764Z"
        fill="#F9A826" />
  <path opacity="0.1"
        d="M532.777 387.133C532.777 389.757 522.02 392.216 503.25 394.329H148.22C132.424 394.357 116.901 390.869 103.229 384.221L103.019 384.121C108.413 382.469 118.15 380.928 131.402 379.538L131.996 379.476C137.939 378.865 144.581 378.285 151.841 377.736C152.024 377.736 152.211 377.713 152.394 377.693C158.154 377.263 164.281 376.86 170.775 376.483C170.981 376.483 171.182 376.453 171.388 376.445C173.893 376.294 176.45 376.15 179.059 376.015L180.064 375.961C199.058 374.97 220.649 374.178 244.063 373.656H244.091C247.37 373.579 250.684 373.511 254.033 373.452C257.757 373.378 261.527 373.313 265.343 373.256C268.255 373.202 271.203 373.164 274.161 373.126H274.23C287.573 372.956 301.361 372.872 315.459 372.872C350.32 372.872 383.27 373.406 412.467 374.366H412.55C417.039 374.512 421.446 374.674 425.743 374.839L429.4 374.985C434.249 375.18 438.972 375.388 443.571 375.611C497.65 378.197 532.777 382.396 532.777 387.133Z"
        fill="#F9A826" />
  <g opacity="0.2">
    <path d="M356.99 371.109C356.975 371.523 356.918 371.935 356.82 372.342C353.639 371.917 350.439 371.532 347.221 371.189C347.221 371.082 347.221 370.97 347.221 370.859C347.25 369.707 347.645 368.582 348.363 367.601C349.305 366.349 350.736 365.565 352.313 365.607C353.89 365.649 355.257 366.506 356.103 367.801C356.742 368.818 357.048 369.959 356.99 371.109Z"
          fill="#3F3D56" />
    <path d="M357.252 364.544C357.364 361.572 355.266 359.106 352.565 359.034C349.865 358.962 347.586 361.313 347.474 364.284C347.363 367.255 349.461 369.722 352.161 369.793C354.861 369.865 357.14 367.515 357.252 364.544Z"
          fill="#3F3D56" />
    <path d="M357.502 357.966C357.613 354.995 355.515 352.528 352.815 352.457C350.115 352.385 347.835 354.735 347.724 357.707C347.612 360.678 349.71 363.144 352.41 363.216C355.11 363.288 357.39 360.937 357.502 357.966Z"
          fill="#3F3D56" />
    <path d="M357.746 351.389C357.858 348.418 355.76 345.951 353.06 345.879C350.36 345.808 348.08 348.158 347.969 351.129C347.857 354.1 349.955 356.567 352.655 356.639C355.355 356.71 357.635 354.36 357.746 351.389Z"
          fill="#3F3D56" />
    <path d="M357.991 344.811C358.103 341.84 356.005 339.374 353.305 339.302C350.604 339.23 348.325 341.581 348.213 344.552C348.102 347.523 350.2 349.99 352.9 350.061C355.6 350.133 357.879 347.783 357.991 344.811Z"
          fill="#3F3D56" />
    <path d="M336.464 299.174C335.82 298.442 335.24 297.671 334.727 296.869L347.646 295.436L333.74 295.156C332.499 292.682 331.871 290.021 331.895 287.337C331.92 284.652 332.596 282 333.881 279.543L352.222 288.168L335.422 277.088C337.117 274.784 339.358 272.799 342.007 271.256C344.656 269.713 347.654 268.646 350.816 268.121C353.977 267.596 357.234 267.624 360.382 268.204C363.53 268.785 366.501 269.904 369.111 271.493C371.721 273.081 373.913 275.105 375.551 277.438C377.188 279.771 378.236 282.362 378.628 285.05C379.02 287.738 378.749 290.466 377.831 293.062C376.912 295.658 375.367 298.067 373.291 300.139C374.292 301.278 375.143 302.506 375.828 303.8L358.873 310.638L376.852 306.093C377.984 309.233 378.167 312.561 377.383 315.775C376.599 318.989 374.874 321.987 372.363 324.5C374.973 327.476 376.534 331.01 376.867 334.697C377.2 338.383 376.292 342.075 374.247 345.348C372.201 348.622 369.101 351.345 365.3 353.208C361.499 355.07 357.151 355.996 352.754 355.879C348.357 355.763 344.087 354.609 340.433 352.549C336.78 350.489 333.889 347.606 332.093 344.231C330.297 340.856 329.668 337.124 330.276 333.462C330.885 329.8 332.708 326.356 335.536 323.524C332.418 319.967 330.812 315.632 330.978 311.216C331.144 306.8 333.071 302.559 336.45 299.174H336.464Z"
          fill="#F9A826" />
    <path opacity="0.1"
          d="M377.849 312.459C377.689 316.878 375.755 321.121 372.363 324.5C374.973 327.476 376.534 331.01 376.867 334.696C377.2 338.383 376.292 342.075 374.247 345.348C372.201 348.622 369.101 351.345 365.3 353.208C361.499 355.07 357.151 355.996 352.754 355.879C348.357 355.763 344.087 354.609 340.433 352.549C336.78 350.489 333.889 347.606 332.093 344.231C330.297 340.856 329.668 337.124 330.276 333.462C330.885 329.8 332.708 326.356 335.536 323.524C332.533 320.093 377.931 310.25 377.849 312.459Z"
          fill="black" />
  </g>
  <g opacity="0.2">
    <path d="M287.505 371.109C287.49 371.523 287.434 371.935 287.336 372.342C284.154 371.917 280.954 371.532 277.736 371.189C277.736 371.082 277.736 370.97 277.736 370.859C277.766 369.707 278.16 368.582 278.879 367.601C279.82 366.349 281.251 365.565 282.828 365.607C284.406 365.649 285.772 366.506 286.618 367.801C287.258 368.818 287.564 369.959 287.505 371.109Z"
          fill="#3F3D56" />
    <path d="M287.762 364.545C287.874 361.574 285.776 359.107 283.076 359.036C280.376 358.964 278.096 361.314 277.985 364.286C277.873 367.257 279.971 369.723 282.671 369.795C285.371 369.867 287.651 367.516 287.762 364.545Z"
          fill="#3F3D56" />
    <path d="M288.012 357.968C288.124 354.997 286.025 352.53 283.325 352.458C280.625 352.387 278.346 354.737 278.234 357.708C278.122 360.679 280.221 363.146 282.921 363.218C285.621 363.289 287.9 360.939 288.012 357.968Z"
          fill="#3F3D56" />
    <path d="M288.257 351.39C288.368 348.419 286.27 345.953 283.57 345.881C280.87 345.809 278.591 348.16 278.479 351.131C278.367 354.102 280.465 356.569 283.166 356.64C285.866 356.712 288.145 354.362 288.257 351.39Z"
          fill="#3F3D56" />
    <path d="M288.502 344.813C288.613 341.842 286.515 339.375 283.815 339.303C281.115 339.232 278.835 341.582 278.724 344.553C278.612 347.524 280.71 349.991 283.41 350.063C286.11 350.135 288.39 347.784 288.502 344.813Z"
          fill="#3F3D56" />
    <path d="M266.979 299.174C266.336 298.442 265.755 297.671 265.242 296.869L278.161 295.436L264.255 295.156C263.014 292.682 262.386 290.021 262.411 287.337C262.435 284.652 263.111 282 264.397 279.543L282.737 288.168L265.937 277.088C267.632 274.784 269.874 272.799 272.522 271.256C275.171 269.713 278.17 268.646 281.331 268.121C284.493 267.596 287.749 267.624 290.897 268.204C294.045 268.785 297.017 269.904 299.627 271.493C302.237 273.081 304.429 275.105 306.066 277.438C307.704 279.771 308.751 282.362 309.144 285.05C309.536 287.738 309.264 290.466 308.346 293.062C307.428 295.658 305.882 298.067 303.806 300.139C304.808 301.278 305.658 302.506 306.343 303.8L289.388 310.638L307.367 306.093C308.5 309.233 308.682 312.561 307.898 315.775C307.114 318.989 305.389 321.987 302.878 324.5C305.489 327.476 307.05 331.01 307.383 334.697C307.716 338.383 306.808 342.075 304.762 345.348C302.716 348.622 299.616 351.345 295.815 353.208C292.014 355.07 287.667 355.996 283.269 355.879C278.872 355.763 274.602 354.609 270.949 352.549C267.295 350.489 264.405 347.606 262.609 344.231C260.813 340.856 260.183 337.124 260.792 333.462C261.401 329.8 263.223 326.356 266.051 323.524C262.933 319.967 261.328 315.632 261.493 311.216C261.659 306.8 263.587 302.559 266.966 299.174H266.979Z"
          fill="#F9A826" />
    <path opacity="0.1"
          d="M308.364 312.459C308.204 316.878 306.271 321.121 302.878 324.5C305.489 327.476 307.05 331.01 307.383 334.696C307.716 338.383 306.808 342.075 304.762 345.348C302.716 348.622 299.616 351.345 295.815 353.208C292.014 355.07 287.667 355.996 283.269 355.879C278.872 355.763 274.602 354.609 270.949 352.549C267.295 350.489 264.405 347.606 262.609 344.231C260.813 340.856 260.183 337.124 260.792 333.462C261.401 329.8 263.223 326.356 266.051 323.524C263.048 320.093 308.446 310.25 308.364 312.459Z"
          fill="black" />
  </g>
  <g opacity="0.2">
    <path d="M477.044 421.416C477.009 422.2 476.898 422.982 476.71 423.751C470.585 422.929 464.415 422.194 458.201 421.546C458.201 421.339 458.201 421.127 458.201 420.912C458.259 418.694 459.02 416.528 460.404 414.639C462.233 412.23 464.976 410.72 468.006 410.797C471.037 410.874 473.675 412.529 475.321 415.023C476.562 416.987 477.157 419.194 477.044 421.416Z"
          fill="#3F3D56" />
    <path d="M477.542 408.767C477.757 403.045 473.715 398.295 468.514 398.157C463.313 398.019 458.923 402.545 458.708 408.267C458.493 413.988 462.534 418.739 467.735 418.877C472.936 419.015 477.326 414.489 477.542 408.767Z"
          fill="#3F3D56" />
    <path d="M478.017 396.104C478.232 390.382 474.19 385.632 468.989 385.494C463.788 385.356 459.398 389.882 459.183 395.604C458.968 401.326 463.009 406.076 468.21 406.214C473.411 406.352 477.801 401.826 478.017 396.104Z"
          fill="#3F3D56" />
    <path d="M478.496 383.441C478.711 377.72 474.67 372.969 469.469 372.831C464.268 372.693 459.878 377.219 459.663 382.941C459.447 388.663 463.489 393.413 468.69 393.551C473.891 393.689 478.281 389.163 478.496 383.441Z"
          fill="#3F3D56" />
    <path d="M478.435 370.202C478.64 364.478 474.587 359.731 469.384 359.599C464.181 359.468 459.797 364.003 459.592 369.727C459.388 375.452 463.441 380.199 468.644 380.33C473.847 380.461 478.231 375.927 478.435 370.202Z"
          fill="#3F3D56" />
    <path d="M437.525 282.933C436.291 281.523 435.175 280.043 434.183 278.504L459.051 275.745L432.286 275.203C429.895 270.441 428.686 265.32 428.731 260.151C428.777 254.983 430.077 249.877 432.551 245.145L467.865 261.746L435.527 240.416C438.797 235.992 443.116 232.181 448.215 229.221C453.314 226.261 459.083 224.215 465.164 223.211C471.245 222.207 477.507 222.267 483.56 223.386C489.612 224.505 495.325 226.66 500.343 229.716C505.362 232.772 509.577 236.664 512.727 241.149C515.877 245.634 517.894 250.616 518.652 255.785C519.411 260.954 518.894 266.199 517.135 271.193C515.375 276.187 512.411 280.823 508.426 284.812C510.352 287.007 511.991 289.371 513.313 291.862L480.669 305.035L515.279 296.276C517.46 302.313 517.815 308.712 516.312 314.894C514.809 321.075 511.496 326.844 506.671 331.678C511.695 337.408 514.699 344.211 515.34 351.308C515.981 358.406 514.232 365.511 510.294 371.813C506.356 378.114 500.387 383.357 493.07 386.942C485.753 390.527 477.384 392.309 468.919 392.085C460.454 391.86 452.234 389.639 445.201 385.673C438.167 381.708 432.604 376.16 429.146 369.663C425.688 363.165 424.475 355.981 425.646 348.932C426.818 341.882 430.326 335.252 435.769 329.8C429.769 322.952 426.68 314.609 426.998 306.109C427.317 297.61 431.024 289.446 437.525 282.929V282.933Z"
          fill="#F9A826" />
    <path opacity="0.1"
          d="M517.203 308.504C516.903 317.006 513.199 325.174 506.689 331.686C511.713 337.416 514.718 344.219 515.358 351.316C515.999 358.413 514.25 365.519 510.312 371.82C506.374 378.122 500.405 383.365 493.088 386.95C485.772 390.534 477.402 392.317 468.937 392.092C460.472 391.868 452.253 389.646 445.219 385.681C438.186 381.716 432.622 376.168 429.164 369.67C425.706 363.173 424.493 355.989 425.664 348.939C426.836 341.89 430.344 335.26 435.787 329.807C429.964 323.196 517.363 304.251 517.203 308.504Z"
          fill="black" />
  </g>
  <path d="M118.154 375.988L122.95 375.976H129.711L138.259 259.269L222.916 140.546L219.236 137.226V128.82L127.681 256.519L118.154 375.988Z"
        fill="#F1C0C0" />
  <path opacity="0.1"
        d="M123.462 375.976H129.711L138.259 259.269L222.916 140.546L219.236 137.226L131.914 257.491L123.462 375.976Z"
        fill="black" />
  <path d="M104.024 376.96L323.381 391.067L323.568 391.078L535.858 380.106L536.018 380.098V372.565L302.101 368.957L106.945 368.8H105.519L105.364 369.645L104.024 376.96Z"
        fill="#F1C0C0" />
  <path opacity="0.1"
        d="M104.024 376.96L323.381 391.067L323.568 391.078L535.858 380.106L536.018 379.96V372.722H535.83L323.381 378.685L106.945 368.8H106.913L106.529 369.011L105.364 369.645L104.024 376.96Z"
        fill="black" />
  <path opacity="0.1"
        d="M104.024 376.96L323.381 391.067V378.685L106.529 369.011L105.364 369.645L104.024 376.96Z"
        fill="black" />
  <path d="M219.209 137.069L315.916 224.301L312.926 377.743L321.141 378.577L321.278 378.592H329.493L330.476 230.89L511.561 281.725L514.614 372.238L521.225 372.86L523.465 373.072L518.281 275.447L328.981 219.595L225.184 128.909H219.209V137.069Z"
        fill="#F1C0C0" />
  <path opacity="0.1"
        d="M329.73 228.066L330.476 230.89L511.561 281.725L514.614 372.238L521.225 372.86L516.041 279.842L329.73 228.066Z"
        fill="black" />
  <path opacity="0.1"
        d="M219.209 137.069L315.916 224.301L312.926 377.743L321.141 378.577L323.381 219.28L219.209 128.909V137.069Z"
        fill="black" />
  <path d="M330.083 289.647L396.5 300.638L396.523 300.642L512.85 319.901L518.176 318.107L518.157 317.792L517.81 311.549L330.151 279.681L330.083 289.647Z"
        fill="#F1C0C0" />
  <path opacity="0.1"
        d="M396.523 300.642L512.85 319.901L518.176 318.107L518.157 317.792L396.523 300.642Z"
        fill="black" />
  <path d="M400.971 250.679L402.767 333.793L403.695 376.433L411.873 376.203L417.021 376.057L415.421 251.882L411.873 250.89L411.096 250.679H400.971Z"
        fill="#F1C0C0" />
  <path opacity="0.1"
        d="M401.044 250.66V250.679L402.767 333.793L403.695 376.433L411.873 376.203V250.66H401.044Z"
        fill="black" />
  <path d="M272.867 271.905C273.347 272.124 273.806 272.375 274.239 272.654C274.751 273.031 275.211 273.455 275.61 273.918C277.571 276.05 279.382 278.528 279.19 281.218C279.194 281.609 279.106 281.997 278.931 282.36C278.756 282.722 278.497 283.052 278.17 283.331C277.361 283.911 276.2 283.938 275.139 283.938C273.987 283.938 272.776 283.938 271.779 283.438C270.783 282.939 269.951 281.967 268.772 281.99C268.605 282.013 268.435 282.013 268.269 281.99C267.862 281.878 267.78 281.429 267.514 281.145C267.057 280.634 266.093 280.76 265.375 280.983C264.657 281.206 263.862 281.54 263.153 281.283C262.742 281.101 262.406 280.818 262.189 280.472C260.493 278.167 260.132 275.397 259.812 272.72C259.615 271.091 258.116 265.535 262.253 266.799C264.081 267.353 265.791 268.459 267.455 269.27L272.867 271.905Z"
        fill="#3F3D56" />
  <path d="M268.781 272.454C269.15 272.678 269.598 272.791 270.053 272.775C270.508 272.76 270.943 272.617 271.29 272.37C271.971 271.853 272.405 271.146 272.511 270.38C272.968 270.261 273.201 270.764 273.494 271.071C274.006 271.594 275.048 271.586 275.514 272.143C275.839 272.527 275.766 273.061 275.994 273.496C276.291 274.056 277.027 274.348 277.53 274.802C278.005 275.297 278.348 275.872 278.536 276.488L279.286 278.378C279.644 279.165 279.875 279.988 279.971 280.826C280.019 281.245 279.966 281.667 279.817 282.069C279.668 282.471 279.425 282.843 279.103 283.165C278.097 284.076 276.447 284.172 274.989 284.145C274.502 284.154 274.015 284.106 273.544 284.003C272.25 283.665 271.423 282.57 271.08 281.467C270.737 280.365 270.774 279.208 270.573 278.079C270.355 276.969 269.971 275.888 269.43 274.859C269.027 274.06 267.921 272.869 267.939 272.02C268.269 272.02 268.506 272.274 268.781 272.454Z"
        fill="#3F3D56" />
  <path d="M270.422 268.563C270.208 268.017 270.083 267.45 270.051 266.876C270.051 265.724 270.678 264.64 271.309 263.611L266.083 264.206C265.453 264.279 264.749 264.387 264.392 264.828C264.257 265.047 264.186 265.29 264.186 265.537C264.186 265.784 264.257 266.027 264.392 266.246C264.654 266.684 264.862 267.144 265.014 267.618C265.026 268.032 265.082 268.445 265.183 268.851C265.346 269.149 265.573 269.419 265.855 269.646C267.35 271.037 268.47 272.677 269.585 274.302C269.553 274.256 272.735 272.185 272.607 271.509C272.534 271.125 271.615 270.664 271.322 270.295C270.918 269.76 270.614 269.176 270.422 268.563Z"
        fill="#BE6F72" />
  <path d="M315.221 253.553V257.337L238.116 269.976L234.116 272.013H220.315V269.88L296.072 254.498L315.221 253.553Z"
        fill="#F1C0C0" />
  <path opacity="0.1"
        d="M315.221 257.337L238.116 269.977L234.116 272.013H220.315L296.634 258.286L315.221 257.337Z"
        fill="black" />
  <path d="M253.316 360.978C252.457 360.103 251.271 359.499 249.951 359.263C248.631 359.027 247.255 359.174 246.047 359.679C245.789 359.781 245.561 359.931 245.38 360.117C244.923 360.655 245.215 361.396 245.256 362.061C245.362 363.682 243.826 365 242.445 366.133C241.704 366.74 240.95 367.39 240.616 368.216C240.283 369.042 240.53 370.09 241.426 370.521C241.817 370.685 242.242 370.785 242.678 370.813C244.139 371.052 245.638 371.087 247.112 370.916C248.571 370.682 250.001 369.987 250.632 368.857C250.754 368.551 250.955 368.271 251.222 368.039C252.027 367.505 253.261 368.131 254.175 367.751C254.929 367.436 254.961 366.94 254.971 366.287C254.998 364.481 254.678 362.438 253.316 360.978Z"
        fill="#F9A826" />
  <path d="M264.287 360.909C264.849 362.153 264.927 363.509 265 364.839C265.041 365.607 265.069 366.429 264.575 367.079C264.081 367.728 263.117 368.07 262.193 368.231C260.287 368.561 258.079 368.25 256.849 366.979C255.908 366.007 255.711 364.674 255.885 363.413C256.031 362.38 256.342 361.17 255.46 360.436C255.231 360.24 254.934 360.102 254.724 359.891C254.266 359.422 254.34 358.715 254.586 358.139C254.908 357.588 255.149 357.006 255.304 356.406C255.341 356.122 261.494 356.606 262.061 356.84C262.833 357.159 262.714 357.693 262.947 358.338C263.272 359.237 263.894 360.048 264.287 360.909Z"
        fill="#F9A826" />
  <path d="M265.416 305.717C266.623 306.374 267.089 307.665 267.277 308.863C267.793 312.148 266.888 315.468 266.819 318.783C266.755 323.428 268.355 328.157 266.989 332.656C266.17 335.345 266.865 338.419 266.097 341.135C265.869 341.941 265.448 342.702 265.229 343.509C264.772 345.257 265.252 347.086 265.896 348.795C266.102 349.256 266.233 349.738 266.285 350.228C266.254 350.983 266.026 351.723 265.617 352.395L262.874 357.847C262.568 358.457 261.361 358.557 260.589 358.638C259.135 358.784 257.512 358.888 256.356 358.131C255.199 357.374 254.92 356.106 254.742 354.923C254.4 352.651 254.247 350.363 254.285 348.073C254.335 347.476 254.272 346.875 254.097 346.294C253.846 345.637 253.293 345.069 253.142 344.373C252.95 343.474 253.494 342.591 253.695 341.684C253.833 340.856 253.818 340.015 253.649 339.191C253.471 337.961 253.265 336.732 253.032 335.51C252.703 333.801 253.174 332.114 253.489 330.401C253.787 328.791 253.407 327.15 253.032 325.552C253.065 326.849 252.872 328.144 252.461 329.394C252.219 330.005 251.871 330.589 251.661 331.211C250.724 334.004 252.721 336.936 252.438 339.828C252.305 341.181 251.675 342.518 251.853 343.851C251.976 344.827 252.516 345.722 252.886 346.652C253.256 347.581 253.448 348.645 252.886 349.514C251.4 351.873 252.511 355.081 253.841 357.501C254.111 357.93 254.347 358.374 254.545 358.83C254.939 359.921 254.609 361.093 254.715 362.23C254.332 362.283 253.94 362.261 253.568 362.168C253.197 362.074 252.855 361.91 252.571 361.688C252.369 361.512 252.205 361.304 252.008 361.12C251.459 360.68 250.809 360.339 250.097 360.117C249.68 359.921 249.204 359.829 248.726 359.852C248.224 359.97 247.772 360.206 247.423 360.532C246.971 360.866 246.491 361.173 245.988 361.45C245.773 361.589 245.523 361.682 245.256 361.723C245.123 361.74 244.986 361.722 244.865 361.67C244.744 361.618 244.646 361.536 244.584 361.435C244.556 361.371 244.539 361.303 244.534 361.235C244.364 360.075 244.274 358.908 244.264 357.739C244.264 355.73 241.403 354.347 241.042 352.361C240.754 350.758 241.288 349.126 241.11 347.512C241.023 346.682 240.749 345.868 240.767 345.038C240.767 344.5 240.914 343.974 240.964 343.44C241.006 342.847 240.995 342.252 240.932 341.661L240.79 339.805C240.653 337.973 240.502 336.102 239.643 334.427C238.624 332.471 238.02 330.38 237.86 328.249C237.769 326.905 237.828 325.56 237.645 324.211C237.481 322.994 237.115 321.783 237.22 320.562C237.307 319.617 237.677 318.702 237.764 317.757C237.942 315.94 237.119 314.173 236.475 312.432C235.83 310.692 235.355 308.764 236.201 307.085C236.321 306.809 236.523 306.563 236.786 306.37C237.11 306.19 237.479 306.074 237.865 306.032C245.708 304.647 253.747 304.216 261.736 304.753C263.039 304.815 264.303 305.146 265.416 305.717Z"
        fill="#3F3D56" />
  <path d="M239.464 264.913C243.509 264.913 246.788 262.157 246.788 258.758C246.788 255.359 243.509 252.604 239.464 252.604C235.42 252.604 232.141 255.359 232.141 258.758C232.141 262.157 235.42 264.913 239.464 264.913Z"
        fill="#BE6F72" />
  <path d="M238.047 266.446C238.153 266.798 238.153 267.166 238.047 267.518C237.932 267.764 237.77 267.992 237.567 268.194C236.858 268.962 236.074 269.679 235.222 270.338C235.656 271.152 236.437 271.8 237.412 272.155C238.38 272.501 239.394 272.745 240.434 272.881C240.952 272.995 241.492 273.027 242.024 272.973C242.515 272.869 242.98 272.692 243.396 272.451L247.464 270.403C248.078 270.123 248.647 269.779 249.156 269.377C249.902 268.733 250.324 267.871 250.335 266.972C250.354 266.811 250.302 266.65 250.189 266.519C250.033 266.405 249.837 266.336 249.631 266.323C248.2 266.058 247.071 265.082 246.431 263.976C245.853 262.841 245.478 261.641 245.32 260.414L240.982 262.335C240.338 262.623 239.698 262.911 239.03 263.161C238.605 263.322 237.746 263.457 237.444 263.783C236.868 264.387 237.896 265.72 238.047 266.446Z"
        fill="#BE6F72" />
  <path d="M235.25 269.22C234.632 269.645 234.15 270.193 233.846 270.814C233.563 271.582 233.846 272.393 234.102 273.154C235.302 276.396 236.219 279.707 236.845 283.062C237.229 285.367 237.371 287.706 237.558 290.038C237.942 294.795 238.5 302.378 239.245 307.104C241.988 307.208 244.662 306.535 247.382 306.289C252.465 305.836 257.7 306.873 262.678 305.905C261.471 301.898 260.264 295.056 259.057 291.053C258.523 289.475 258.153 287.862 257.951 286.231C257.846 285.059 257.91 283.884 257.928 282.704C257.969 280.399 257.818 278.094 257.668 275.789C257.494 273.1 257.32 270.411 256.561 267.779C256.508 267.444 256.321 267.133 256.031 266.899C255.574 266.619 254.98 266.719 254.436 266.78C252.77 266.958 251.084 266.622 249.691 265.835C249.087 265.489 248.278 265.067 247.716 265.451C247.476 265.683 247.317 265.966 247.259 266.269C247.01 266.813 246.626 267.305 246.132 267.714C245.639 268.123 245.047 268.438 244.397 268.64C243.094 269.036 241.73 269.272 240.347 269.339C239.923 269.415 239.482 269.373 239.09 269.22C238.44 268.885 238.395 267.683 237.576 267.602C236.859 267.533 235.734 268.832 235.25 269.22Z"
        fill="#3F3D56" />
  <path d="M246.066 278.601C244.379 277.245 243.638 275.278 242.408 273.607C241.571 272.483 240.501 271.494 239.25 270.687C238.62 270.338 238.043 269.926 237.531 269.462C237.097 269.012 236.767 268.413 236.109 268.24C235.837 268.19 235.555 268.197 235.286 268.259C235.018 268.321 234.772 268.437 234.569 268.597C234.166 268.92 233.784 269.261 233.426 269.619C231.487 271.306 228.082 271.54 226.546 273.492C226.131 273.906 225.85 274.401 225.728 274.932C225.285 277.773 226.159 280.648 228.169 282.962C228.558 283.498 229.155 283.905 229.86 284.114C229.764 284.831 229.877 285.556 230.189 286.227C231.036 288.659 232.076 291.04 233.302 293.354C233.009 294.259 232.804 295.183 232.69 296.116C232.37 298.464 232.667 300.845 232.365 303.197C232.118 305.118 231.451 306.989 231.428 308.913C231.428 309.221 231.46 309.586 231.775 309.743C231.943 309.816 232.131 309.849 232.319 309.839L237.942 309.981C241.206 310.062 244.502 310.143 247.716 309.636C248.144 309.582 248.559 309.472 248.945 309.309C250.033 308.798 250.395 307.645 250.568 306.62C250.795 305.289 250.885 303.945 250.838 302.601C251.519 304.411 252.328 306.282 254.385 307.065C255.473 307.48 256.717 307.45 257.91 307.423C260.482 307.326 263.044 307.105 265.585 306.758C265.742 306.774 265.901 306.76 266.049 306.715C266.198 306.671 266.332 306.597 266.441 306.501C266.55 306.405 266.63 306.289 266.676 306.162C266.722 306.036 266.732 305.901 266.705 305.771L266.733 303.673C266.787 299.412 265.53 295.34 265.041 291.099C264.886 289.762 264.9 288.41 264.511 287.099C264.351 286.55 264.118 286.012 263.976 285.459C263.854 284.917 263.778 284.369 263.748 283.819L263.391 279.593C263.222 277.637 262.98 275.751 262.801 273.799C262.703 271.899 262.376 270.012 261.823 268.167C261.425 267.014 260.598 265.708 259.167 265.566C258.404 265.493 257.663 265.773 256.936 265.969C255.15 266.442 253.232 266.435 251.451 265.95C250.9 265.768 250.326 265.639 249.741 265.566C249.446 265.532 249.146 265.565 248.871 265.661C248.597 265.757 248.357 265.912 248.177 266.112C248 266.412 247.917 266.745 247.935 267.08C247.72 270.918 247.323 274.871 246.066 278.601Z"
        fill="#F9A826" />
  <path d="M238.71 278.717C236.603 276.85 234.441 274.948 231.725 273.761C230.655 273.292 229.439 272.939 228.255 273.115C227.072 273.292 225.97 274.156 226.025 275.167C226.061 275.793 226.514 276.346 226.656 276.961C226.82 277.652 226.582 278.39 226.838 279.059C227.046 279.499 227.357 279.9 227.753 280.238L230.989 283.461C232.361 284.806 233.732 286.17 235.497 287.099C237.261 288.029 239.547 288.463 241.485 287.803C242.864 287.264 244.011 286.379 244.767 285.271C245.572 284.195 246.139 283.019 246.893 281.909C248.067 280.135 249.616 278.556 251.464 277.249C250.513 277.042 249.32 276.75 248.721 276.097C248.551 275.889 248.406 275.668 248.287 275.436L247.547 274.091C247.295 274.08 247.043 274.113 246.807 274.188C246.571 274.262 246.356 274.377 246.175 274.525C245.858 274.834 245.517 275.125 245.156 275.397C244.511 275.805 243.638 275.916 243.053 276.381C242.827 276.58 242.622 276.796 242.44 277.026C241.998 277.515 241.436 277.919 240.793 278.21C240.149 278.502 239.439 278.675 238.71 278.717Z"
        fill="#3F3D56" />
  <path d="M251.633 270.683C253.22 268.252 253.147 265.336 253.599 262.589C253.648 261.861 253.952 261.162 254.472 260.579C255.387 259.711 257 259.7 258.381 259.811C258.788 259.849 259.295 260.011 259.272 260.353C259.24 260.475 259.169 260.588 259.066 260.679C257.728 262.131 256.941 263.887 256.808 265.72C257.526 266.138 258.637 265.278 259.327 265.72C259.784 266.042 259.574 266.68 259.3 267.141C258.663 268.209 258.006 269.27 257.329 270.322C256.789 271.25 256.085 272.104 255.24 272.854C254.66 273.323 253.979 273.692 253.389 274.153C252.017 275.232 251.19 276.757 249.773 277.81C249.653 277.919 249.491 277.988 249.316 278.006C249.135 277.995 248.965 277.931 248.836 277.825C248.128 277.341 247.541 276.745 247.108 276.07C246.568 275.232 246.651 274.986 247.501 274.395C249.092 273.338 250.641 272.205 251.633 270.683Z"
        fill="#BE6F72" />
  <path d="M236.059 277.065C236.333 277.207 236.671 277.368 236.973 277.249C237.096 277.186 237.201 277.101 237.279 276.999C237.802 276.413 238.238 275.776 238.578 275.101C238.636 275.006 238.669 274.901 238.674 274.794C238.674 274.548 238.413 274.368 238.171 274.226C236.873 273.53 235.477 272.973 234.015 272.566C232.809 272.182 231.547 271.847 230.267 271.943C229.786 271.971 229.317 272.079 228.887 272.263C228.457 272.446 228.076 272.701 227.766 273.011C226.852 273.999 228.384 274.299 229.344 274.656C231.565 275.505 233.97 275.997 236.059 277.065Z"
        fill="#F9A826" />
  <path opacity="0.1"
        d="M234.619 283.596C234.603 283.683 234.613 283.773 234.646 283.857C234.679 283.941 234.736 284.017 234.811 284.08C234.943 283.534 234.77 282.958 234.907 282.409C235.108 281.583 236.063 280.96 236.146 280.13C234.395 279.842 234.633 282.704 234.619 283.596Z"
        fill="black" />
  <path opacity="0.2"
        d="M315.221 253.553V257.337L296.634 258.286L296.072 254.498L315.221 253.553Z"
        fill="black" />
  <path d="M232.873 259.673C234.034 258.877 233.362 257.21 234.148 256.142C234.605 255.558 235.378 255.251 236.137 254.989C237.052 254.629 238.034 254.401 239.039 254.313C239.543 254.273 240.051 254.328 240.526 254.475C241.001 254.622 241.43 254.857 241.782 255.162C242.079 255.447 242.28 255.792 242.559 256.088C242.905 256.433 243.355 256.693 243.862 256.841C244.369 256.988 244.914 257.018 245.439 256.926C246.047 256.811 246.678 256.422 246.637 255.9C246.568 255.582 246.375 255.293 246.088 255.078L244.781 253.86C243.295 252.477 241.645 251.009 239.464 250.664C237.947 250.422 236.393 250.763 234.93 251.175C234.34 251.34 233.677 251.586 233.513 252.089C233.403 252.435 233.567 252.811 233.471 253.161C233.284 253.856 232.223 254.091 231.73 254.674C231.236 255.258 231.387 255.95 231.245 256.595C231.103 257.241 230.692 257.871 230.642 258.539C230.61 258.943 230.852 259.692 231.391 259.838C231.931 259.984 232.539 259.192 232.873 259.673Z"
        fill="#3F3D56" />
  <path d="M246.194 255.347C245.808 253.657 244.977 252.06 243.762 250.675C242.681 249.381 241.177 248.378 239.432 247.786C238.56 247.5 237.622 247.383 236.689 247.445C235.755 247.507 234.851 247.746 234.043 248.143C232.843 248.863 231.91 249.852 231.35 250.998C230.166 253.142 229.727 255.762 231.103 257.821C231.652 257.26 232.594 257.514 233.426 257.31C234.468 257.06 235.35 256.476 236.342 256.111C239.336 255.001 242.994 255.9 246.194 255.347Z"
        fill="#FED253" />
  <path opacity="0.1"
        d="M231.803 255.228C231.698 254.536 231.629 253.733 232.214 253.241C232.243 253.211 232.28 253.187 232.322 253.171C232.365 253.155 232.41 253.148 232.457 253.149C232.497 253.16 232.535 253.178 232.567 253.202C232.599 253.226 232.626 253.255 232.644 253.288C232.982 253.736 233.269 254.209 233.503 254.701C233.163 254.635 232.806 254.657 232.48 254.763C232.154 254.869 231.874 255.055 231.675 255.297"
        fill="black" />
  <path opacity="0.1"
        d="M242.486 253.276L242.322 251.905C242.295 251.792 242.306 251.675 242.354 251.566C242.422 251.476 242.529 251.41 242.652 251.382C242.775 251.353 242.907 251.364 243.021 251.413C243.246 251.518 243.431 251.673 243.556 251.862C243.936 252.353 244.252 252.878 244.497 253.426C243.761 253.307 243.004 253.315 242.271 253.449"
        fill="black" />
  <path opacity="0.1"
        d="M246.577 308.94V312.075L243.428 312.252H226.861V308.94H246.577Z"
        fill="black" />
  <path d="M246.578 308.94V312.252H226.861L174.483 257.11V254.505H185.463L246.578 308.94Z"
        fill="#F1C0C0" />
  <path opacity="0.1"
        d="M246.578 308.94V312.252H226.861L174.483 257.11V254.505H185.463L246.578 308.94Z"
        fill="black" />
  <path opacity="0.1"
        d="M246.578 308.94V312.252H226.861L174.483 257.11V254.505L227.145 308.94H246.578Z"
        fill="black" />
  <path d="M181.349 364.209C181.383 364.364 181.379 364.525 181.337 364.679C181.294 364.833 181.214 364.979 181.102 365.106C180.989 365.233 180.847 365.34 180.683 365.419C180.52 365.498 180.339 365.547 180.151 365.565C178.88 365.926 177.532 366.283 176.631 367.102C175.731 367.92 175.552 369.437 176.631 370.102C177.183 370.381 177.816 370.526 178.46 370.521C180.531 370.64 182.688 370.617 184.567 369.879C185.911 369.357 187.177 368.465 188.654 368.546C189.417 368.584 190.231 368.884 190.912 368.592C191.593 368.3 191.785 367.486 191.79 366.806C191.807 365.386 191.552 363.973 191.036 362.622C190.967 362.438 188.06 362.295 187.712 362.238L184.188 361.854C183.52 361.781 182.08 361.358 181.555 361.827C181.029 362.295 181.349 363.652 181.349 364.209Z"
        fill="#F9A826" />
  <path d="M202.382 354.62C202.531 355.311 202.773 355.987 203.104 356.633C203.593 357.678 204.219 358.788 205.417 359.295C206.505 359.752 207.84 359.587 208.946 359.153C209.408 358.992 209.812 358.734 210.121 358.404C210.478 357.881 210.637 357.279 210.578 356.679C210.578 355.192 210.473 353.655 209.664 352.334C208.969 351.181 207.758 350.19 207.739 348.914L203.575 349.591C203.352 349.609 203.139 349.679 202.962 349.794C202.83 349.911 202.739 350.056 202.697 350.213C202.252 351.651 202.145 353.147 202.382 354.62Z"
        fill="#F9A826" />
  <path d="M152.65 318.122C152.476 319.359 152.549 320.685 153.317 321.753C154.085 322.821 155.703 323.528 157.102 323.101C157.174 323.086 157.241 323.058 157.3 323.021C157.359 322.983 157.408 322.936 157.445 322.882C157.482 322.752 157.461 322.616 157.386 322.498C156.768 321.113 156.819 319.58 157.527 318.226C157.619 318.049 157.815 317.842 158.03 317.911C158.12 317.949 158.192 318.011 158.236 318.088C158.457 318.409 158.568 318.776 158.556 319.148C158.491 319.485 158.479 319.827 158.519 320.166C158.606 320.496 159.027 320.808 159.393 320.665C159.498 320.611 159.59 320.539 159.661 320.454C159.733 320.368 159.783 320.272 159.809 320.17C160.828 317.692 160.366 314.983 159.9 312.39C159.904 312.331 159.892 312.271 159.866 312.216C159.839 312.16 159.799 312.111 159.747 312.07C159.695 312.029 159.633 311.999 159.565 311.98C159.498 311.962 159.426 311.956 159.356 311.964C157.198 311.783 156.019 311.349 154.785 313.036C153.724 314.457 152.65 316.413 152.65 318.122Z"
        fill="#F9A826" />
  <path d="M177.875 311.818C177.235 314.054 176.59 316.317 176.549 318.614C176.56 320.045 176.688 321.474 176.933 322.89L177.413 326.217C177.577 327.339 177.737 328.457 177.971 329.567C178.119 330.139 178.2 330.722 178.213 331.307C178.168 331.884 178.059 332.457 177.888 333.017C177.601 334.193 177.44 335.389 177.408 336.59C177.358 338.511 177.641 340.432 177.82 342.353C178.176 346.18 178.122 350.027 177.66 353.847C177.475 354.878 177.741 355.931 178.409 356.809C178.68 357.086 178.904 357.394 179.072 357.724C179.415 358.603 178.615 359.483 178.409 360.386C178.278 361.09 178.484 361.809 178.983 362.385C179.482 362.962 180.232 363.348 181.07 363.459C184.727 363.824 188.485 363.659 191.781 365.065C192.128 364.212 191.369 363.244 191.717 362.376C191.936 361.838 192.54 361.489 192.951 361.035C193.504 360.345 193.779 359.523 193.737 358.692C193.753 357.606 193.524 356.528 193.061 355.515C192.672 354.669 192.114 353.836 192.146 352.929C192.146 352.483 192.334 352.015 192.119 351.604C191.972 351.367 191.771 351.157 191.529 350.985C190.163 349.727 189.323 348.129 189.138 346.433C188.96 344.749 189.025 343.054 189.33 341.384C189.554 339.794 189.856 338.115 191.058 336.874C190.501 333.111 190.829 329.293 192.023 325.637C192.142 325.299 192.329 324.907 192.741 324.826C192.904 324.812 193.069 324.831 193.222 324.882C193.375 324.933 193.511 325.014 193.618 325.118C194.336 325.683 194.679 326.501 194.99 327.285C195.333 328.134 195.68 329.041 195.419 329.909C195.31 330.293 195.09 330.631 194.962 331C194.684 331.741 194.733 332.542 195.099 333.255C195.278 333.516 195.39 333.805 195.429 334.104C195.386 334.361 195.294 334.61 195.154 334.842C194.985 335.296 194.931 335.776 194.996 336.249C195.062 336.722 195.245 337.179 195.534 337.589C196.116 338.404 196.835 339.146 197.669 339.79C197.27 341.265 197.373 342.803 197.966 344.231C198.008 344.295 198.036 344.366 198.046 344.439C198.056 344.513 198.049 344.587 198.025 344.658C197.943 344.804 197.733 344.857 197.568 344.961C197.111 345.276 197.394 345.872 197.701 346.283C198.54 347.411 199.467 348.492 200.475 349.518C201.39 350.436 201.307 352.207 202.67 352.537C203.242 352.641 203.834 352.641 204.407 352.537C205.751 352.364 207.25 352.038 207.908 351.039C208.178 350.628 208.288 350.128 208.708 349.821C209.129 349.514 209.673 349.46 209.906 349.091C210.139 348.722 209.879 348.238 209.956 347.812C210.034 347.385 210.478 347.043 210.619 346.594C210.958 345.557 209.518 344.704 209.321 343.643C209.038 342.107 211.341 340.954 211.245 339.417C211.044 336.079 210.916 332.725 210.711 329.386C210.452 326.396 210.416 323.395 210.601 320.4C210.761 318.537 211.058 316.585 210.244 314.853C209.074 312.409 205.847 311.038 202.724 310.777C199.602 310.515 196.489 311.138 193.394 311.545C188.258 312.21 183.04 312.302 177.875 311.818Z"
        fill="#3F3D56" />
  <path d="M187.154 275.098C191.199 275.098 194.478 272.342 194.478 268.943C194.478 265.544 191.199 262.788 187.154 262.788C183.11 262.788 179.831 265.544 179.831 268.943C179.831 272.342 183.11 275.098 187.154 275.098Z"
        fill="#FBBEBE" />
  <path d="M184.174 276.246C183.925 276.733 183.507 277.145 182.974 277.429C182.441 277.712 181.819 277.853 181.189 277.833C180.924 278.755 181.559 279.685 182.286 280.411C183.795 281.887 185.746 282.998 187.936 283.629C190.127 284.261 192.478 284.39 194.747 284.003C195.631 283.87 196.469 283.576 197.202 283.142C198.191 282.448 198.856 281.482 199.077 280.415C199.287 279.355 199.347 278.278 199.255 277.207C199.28 276.995 199.208 276.783 199.054 276.615C198.871 276.496 198.645 276.434 198.414 276.438C196.869 276.323 195.255 276.273 193.897 275.635C192.539 274.998 191.575 273.557 192.229 272.374C192.124 272.558 189.454 272.647 189.102 272.685C188 272.816 186.898 272.962 185.801 273.131C185.274 273.155 184.753 273.238 184.252 273.376C183.589 273.665 183.836 273.522 183.991 274.045C184.224 274.844 184.567 275.416 184.174 276.246Z"
        fill="#FBBEBE" />
  <path d="M189.746 279.988C188.76 279.998 187.776 279.906 186.816 279.715C185.847 279.525 184.993 279.046 184.412 278.367C184.073 277.937 183.854 277.395 183.314 277.153C182.432 276.769 181.427 277.418 180.723 278.014C180.082 278.601 179.339 279.103 178.519 279.504C177.541 279.938 176.398 280.092 175.475 280.603C174.753 281.061 174.134 281.623 173.646 282.263L167.168 289.677C164.567 292.659 162.305 295.859 159.987 299.005C157.98 301.729 156.929 304.864 155.415 307.803C155.296 307.983 155.246 308.19 155.274 308.395C155.329 308.594 155.617 308.756 155.818 308.641C155.137 309.209 155.735 310.177 155.575 310.976C155.394 311.535 155.014 312.035 154.487 312.409C155.494 312.299 156.515 312.339 157.505 312.528C158.527 312.772 159.492 313.162 160.357 313.681C160.91 313.608 160.86 312.782 161.271 312.475C161.518 312.294 161.884 312.317 162.209 312.263C163.429 312.064 163.914 310.83 164.851 310.135C165.632 309.555 166.739 309.367 167.566 308.821C168.91 307.934 169.198 306.355 169.902 305.045C170.501 303.934 171.443 302.966 171.968 301.829C172.311 301.091 172.476 300.292 172.965 299.612C173.747 298.513 175.219 297.93 176.622 297.403C177.509 297.069 178.451 296.723 179.406 296.777C179.356 298.563 179.086 300.323 179.548 302.067C179.708 302.682 179.932 303.281 180.124 303.892C180.997 306.643 181.203 309.509 181.244 312.344C183.344 311.94 185.489 311.724 187.644 311.699C189.34 311.656 191.031 311.841 192.727 311.814C194.738 311.783 196.727 311.457 198.738 311.341C200.75 311.226 202.852 311.341 204.631 312.11C204.486 309.675 204.567 307.234 204.873 304.81L205.358 300.991C205.467 299.882 205.67 298.78 205.966 297.695C206.231 296.819 206.615 295.974 206.907 295.102C207.936 292.028 207.748 288.748 207.552 285.547C207.451 283.903 206.697 282.286 205.81 280.822C205.489 280.278 205.123 279.754 204.713 279.254C203.641 278.014 202.213 277.021 200.562 276.369C198.91 275.718 197.089 275.428 195.269 275.528C195.036 275.534 194.807 275.576 194.592 275.651C194.206 275.858 193.905 276.16 193.728 276.515C192.782 277.944 191.41 279.141 189.746 279.988Z"
        fill="#3F3D56" />
  <path d="M180.713 270.983C180.919 270.599 181.472 270.457 181.81 270.149C182.46 269.565 182.167 268.632 182.268 267.844C182.432 266.692 183.57 265.727 184.873 265.316C186.202 264.958 187.616 264.883 188.988 265.097C189.648 265.138 190.286 265.316 190.843 265.616C191.081 265.762 191.301 265.95 191.525 266.085C191.933 266.292 192.422 266.357 192.886 266.266C193.351 266.175 193.755 265.935 194.011 265.597C192.393 263.96 190.601 262.231 188.142 261.728C187.298 261.583 186.438 261.515 185.577 261.524C184.439 261.505 183.264 261.49 182.213 261.855C180.782 262.35 179.776 263.491 179.26 264.721C178.808 265.967 178.566 267.26 178.542 268.563C178.448 269.432 178.448 270.306 178.542 271.175C178.719 272.362 179.243 273.493 180.069 274.468C180.18 274.619 180.338 274.742 180.526 274.825C182.61 275.593 180.544 271.302 180.713 270.983Z"
        fill="#3F3D56" />
  <path d="M193.774 264.648C193.522 262.838 191.986 261.344 190.354 260.141C189.039 259.099 187.472 258.306 185.76 257.817C184.037 257.391 182.053 257.483 180.576 258.347C179.388 259.043 178.633 260.149 178.053 261.263C177.29 262.578 176.912 264.027 176.951 265.489C177.065 266.941 177.907 268.413 179.406 269.147C179.945 268.478 180.883 268.132 181.783 267.86C185.708 266.608 189.711 265.536 193.774 264.648Z"
        fill="#FED253" />
  <path opacity="0.1"
        d="M179.909 263.895C180.055 263.895 180.151 264.022 180.224 264.125C180.596 264.613 180.916 265.127 181.18 265.662C180.645 265.758 179.726 265.866 179.461 265.47C179.319 265.27 179.488 263.876 179.909 263.895Z"
        fill="black" />
  <path opacity="0.1"
        d="M190.327 263.027C190.217 263.115 190.089 262.934 190.089 262.804V261.313C190.086 261.272 190.097 261.23 190.121 261.194C190.14 261.176 190.163 261.161 190.189 261.15C190.215 261.14 190.243 261.134 190.272 261.133C190.642 261.098 190.949 261.363 191.186 261.617C191.547 262.028 191.861 262.466 192.123 262.927L190.19 262.877"
        fill="black" />
  <path d="M214.459 287.71C214.88 287.375 215.329 287.065 215.803 286.784C217.069 286.074 218.601 285.793 220.023 285.34C221.444 284.887 222.889 284.153 223.442 282.962C223.719 282.217 223.809 281.432 223.707 280.657C223.72 280.332 223.652 280.009 223.506 279.708C223.332 279.442 223.084 279.215 222.784 279.047C220.854 277.848 218.267 277.752 215.872 277.875C210.591 278.15 205.414 279.236 200.599 281.079C200.344 281.15 200.121 281.284 199.959 281.464C199.865 281.63 199.823 281.814 199.835 281.998C199.75 283.13 199.926 284.267 200.352 285.344C200.983 286.711 202.281 287.814 202.825 289.209C203.072 289.835 203.154 290.499 203.369 291.13C203.545 291.78 204.003 292.353 204.654 292.735C206.459 293.642 208.164 292.424 209.417 291.479L214.459 287.71Z"
        fill="#3F3D56" />
  <path d="M190.811 293.031L188.494 288.782C188.154 288.193 187.861 287.586 187.616 286.965C187.351 286.224 187.223 285.455 186.976 284.71C186.162 282.228 184.11 280.161 183.109 277.729C183.045 277.51 182.916 277.307 182.734 277.141C182.588 277.055 182.421 276.996 182.245 276.969C182.068 276.943 181.887 276.949 181.714 276.988C180.316 277.191 179.223 278.087 177.943 278.594C177.349 278.824 176.709 278.978 176.115 279.243C175.818 279.361 175.554 279.532 175.343 279.743C175.131 279.955 174.977 280.202 174.889 280.468C174.748 281.056 175.095 281.621 175.388 282.193C176.631 284.552 176.915 287.188 176.969 289.77C177.011 291.506 176.905 293.369 175.685 294.764C173.34 297.453 174.839 301.403 175.717 304.657C175.822 305.041 175.945 305.456 176.019 305.863C176.096 306.373 176.131 306.886 176.124 307.4C176.124 309.125 176.009 310.903 175.15 312.467C175.999 312.846 176.934 313.069 177.893 313.12C180.547 313.404 183.212 313.604 185.888 313.719C186.726 313.786 187.572 313.749 188.398 313.612C189.379 313.389 190.243 312.898 190.855 312.216C191.467 311.534 191.791 310.701 191.776 309.847C191.922 310.911 192.192 312.067 193.111 312.805C194.03 313.543 195.369 313.654 196.617 313.712C200.139 313.869 203.671 313.785 207.177 313.462C207.401 313.454 207.621 313.411 207.826 313.335C208.503 313.051 208.539 312.267 208.484 311.637C208.384 310.458 208.279 309.278 208.11 308.107C207.966 307.36 207.893 306.604 207.89 305.848C207.96 305.069 208.113 304.298 208.347 303.542C208.96 301.145 209.444 298.698 209.239 296.243C209.157 295.645 209.128 295.043 209.152 294.441C209.271 293.085 210.121 291.794 209.961 290.446C209.504 286.481 209.133 282.412 207.817 278.586C207.579 277.902 207.278 277.168 206.569 276.777C205.655 276.262 204.37 276.531 203.323 276.204C202.832 276.012 202.365 275.779 201.929 275.509C200.982 275.011 199.896 274.73 198.779 274.694C197.938 274.667 197.001 274.825 196.494 275.393C196.259 275.714 196.103 276.07 196.037 276.442C195.374 278.786 194.597 281.102 193.819 283.419L193.074 285.64L191.077 291.602C190.88 292.236 191.013 292.432 190.811 293.031Z"
        fill="#F9A826" />
  <path d="M202.5 269.769L246.719 308.821V312.133H227.003L193.774 275.685"
        fill="#F1C0C0" />
  <path opacity="0.1"
        d="M202.5 269.769L246.719 308.821V312.133H227.003L193.774 275.685"
        fill="black" />
  <path opacity="0.1"
        d="M194.478 275.171L194.619 275.213L227.286 308.821H246.719V312.133H227.003L193.774 275.685L194.478 275.171Z"
        fill="black" />
  <path d="M199.566 275.993C197.966 276.581 196.187 277.334 195.707 278.747C195.613 278.995 195.592 279.259 195.648 279.516C195.765 279.817 195.988 280.082 196.287 280.274C196.587 280.467 196.949 280.579 197.326 280.595C198.078 280.611 198.827 280.495 199.525 280.257L208.964 277.637C209.22 277.568 209.513 277.464 209.577 277.253C209.593 277.12 209.562 276.986 209.486 276.869C209.193 276.269 208.905 275.044 208.292 274.625C207.79 274.287 206.793 274.406 206.185 274.414C203.844 274.429 201.646 275.224 199.566 275.993Z"
        fill="#F9A826" />
  <path d="M207.981 277.948C209.572 277.944 211.153 278.151 212.667 278.559C214.188 278.974 215.535 279.748 216.548 280.787C216.843 281.078 217.053 281.423 217.161 281.794C217.252 282.178 218.742 282.409 218.413 282.67C219.414 282.535 219.177 282.931 220.192 282.923C221.206 282.916 222.304 282.697 222.912 282.017C223.334 281.458 223.522 280.797 223.446 280.138C223.46 279.682 223.357 279.229 223.145 278.809C222.688 278.002 221.636 277.568 220.667 277.195L212.503 274.057C212.029 273.845 211.521 273.693 210.994 273.607C210.551 273.572 210.104 273.581 209.664 273.634L205.966 273.991C206.774 274.431 207.433 275.04 207.876 275.759C208.319 276.478 208.532 277.281 208.493 278.09"
        fill="#3F3D56" />
  <defs>
    <filter id="filter0_d_107_199"
            x="0"
            y="0.5"
            width="630"
            height="546"
            filterUnits="userSpaceOnUse"
            color-interpolation-filters="sRGB">
      <feFlood flood-opacity="0"
               result="BackgroundImageFix" />
      <feColorMatrix in="SourceAlpha"
                     type="matrix"
                     values="0 0 0 0 0 0 0 0 0 0 0 0 0 0 0 0 0 0 127 0"
                     result="hardAlpha" />
      <feOffset dy="4" />
      <feGaussianBlur stdDeviation="2" />
      <feComposite in2="hardAlpha"
                   operator="out" />
      <feColorMatrix type="matrix"
                     values="0 0 0 0 0 0 0 0 0 0 0 0 0 0 0 0 0 0 0.25 0" />
      <feBlend mode="normal"
               in2="BackgroundImageFix"
               result="effect1_dropShadow_107_199" />
      <feBlend mode="normal"
               in="SourceGraphic"
               in2="effect1_dropShadow_107_199"
               result="shape" />
    </filter>
  </defs>
</svg>